<mxfile host="app.diagrams.net" modified="2024-05-16T22:29:16.665Z" agent="Mozilla/5.0 (Macintosh; Intel Mac OS X 10_15_7) AppleWebKit/537.36 (KHTML, like Gecko) Chrome/124.0.0.0 Safari/537.36" version="24.4.3" etag="O43LUTVQM1awuVth8dbq" type="github">
  <diagram name="Page-1" id="waik0OX7f9MrXkWHyDvR">
    <mxGraphModel>
      <root>
        <mxCell id="0" />
        <mxCell id="1" parent="0" />
      </root>
    </mxGraphModel>
  </diagram>
</mxfile>
